# Blender 5.1.0
# www.blender.org
mtllib transform_gizmo.mtl
o Gizmo
v 0.000000 -0.035000 0.035000
v 0.700000 -0.035000 0.035000
v 0.700000 -0.035000 -0.035000
v 0.000000 -0.035000 -0.035000
v 0.700000 -0.035000 0.035000
v 0.000000 -0.035000 0.035000
v 0.000000 0.035000 0.035000
v 0.700000 0.035000 0.035000
v 0.000000 0.035000 -0.035000
v 0.700000 0.035000 -0.035000
v 0.700000 0.035000 0.035000
v 0.000000 0.035000 0.035000
v 0.000000 -0.035000 -0.035000
v 0.700000 -0.035000 -0.035000
v 0.700000 0.035000 -0.035000
v 0.000000 0.035000 -0.035000
v 0.700000 -0.035000 -0.035000
v 0.700000 -0.035000 0.035000
v 0.700000 0.035000 0.035000
v 0.700000 0.035000 -0.035000
v 0.000000 -0.035000 0.035000
v 0.000000 -0.035000 -0.035000
v 0.000000 0.035000 -0.035000
v 0.000000 0.035000 0.035000
v 0.700000 -0.090000 -0.090000
v 0.700000 -0.090000 0.090000
v 0.700000 0.090000 0.090000
v 0.700000 0.090000 -0.090000
v 0.700000 -0.090000 -0.090000
v 0.700000 0.090000 -0.090000
v 1.000000 0.000000 0.000000
v 0.700000 0.090000 -0.090000
v 0.700000 0.090000 0.090000
v 1.000000 0.000000 0.000000
v 0.700000 0.090000 0.090000
v 0.700000 -0.090000 0.090000
v 1.000000 0.000000 0.000000
v 0.700000 -0.090000 0.090000
v 0.700000 -0.090000 -0.090000
v 1.000000 0.000000 0.000000
v 0.035000 0.000000 0.035000
v 0.035000 0.700000 0.035000
v 0.035000 0.700000 -0.035000
v 0.035000 -0.000000 -0.035000
v 0.035000 0.700000 0.035000
v 0.035000 0.000000 0.035000
v -0.035000 0.000000 0.035000
v -0.035000 0.700000 0.035000
v -0.035000 -0.000000 -0.035000
v -0.035000 0.700000 -0.035000
v -0.035000 0.700000 0.035000
v -0.035000 0.000000 0.035000
v 0.035000 -0.000000 -0.035000
v 0.035000 0.700000 -0.035000
v -0.035000 0.700000 -0.035000
v -0.035000 -0.000000 -0.035000
v 0.035000 0.700000 -0.035000
v 0.035000 0.700000 0.035000
v -0.035000 0.700000 0.035000
v -0.035000 0.700000 -0.035000
v 0.035000 0.000000 0.035000
v 0.035000 -0.000000 -0.035000
v -0.035000 -0.000000 -0.035000
v -0.035000 0.000000 0.035000
v 0.090000 0.700000 -0.090000
v 0.090000 0.700000 0.090000
v -0.090000 0.700000 0.090000
v -0.090000 0.700000 -0.090000
v 0.090000 0.700000 -0.090000
v -0.090000 0.700000 -0.090000
v 0.000000 1.000000 -0.000000
v -0.090000 0.700000 -0.090000
v -0.090000 0.700000 0.090000
v 0.000000 1.000000 -0.000000
v -0.090000 0.700000 0.090000
v 0.090000 0.700000 0.090000
v 0.000000 1.000000 -0.000000
v 0.090000 0.700000 0.090000
v 0.090000 0.700000 -0.090000
v 0.000000 1.000000 -0.000000
v -0.035000 -0.035000 0.000000
v -0.035000 -0.035000 0.700000
v 0.035000 -0.035000 0.700000
v 0.035000 -0.035000 0.000000
v -0.035000 -0.035000 0.700000
v -0.035000 -0.035000 0.000000
v -0.035000 0.035000 -0.000000
v -0.035000 0.035000 0.700000
v 0.035000 0.035000 -0.000000
v 0.035000 0.035000 0.700000
v -0.035000 0.035000 0.700000
v -0.035000 0.035000 -0.000000
v 0.035000 -0.035000 0.000000
v 0.035000 -0.035000 0.700000
v 0.035000 0.035000 0.700000
v 0.035000 0.035000 -0.000000
v 0.035000 -0.035000 0.700000
v -0.035000 -0.035000 0.700000
v -0.035000 0.035000 0.700000
v 0.035000 0.035000 0.700000
v -0.035000 -0.035000 0.000000
v 0.035000 -0.035000 0.000000
v 0.035000 0.035000 -0.000000
v -0.035000 0.035000 -0.000000
v 0.090000 -0.090000 0.700000
v -0.090000 -0.090000 0.700000
v -0.090000 0.090000 0.700000
v 0.090000 0.090000 0.700000
v 0.090000 -0.090000 0.700000
v 0.090000 0.090000 0.700000
v 0.000000 0.000000 1.000000
v 0.090000 0.090000 0.700000
v -0.090000 0.090000 0.700000
v 0.000000 0.000000 1.000000
v -0.090000 0.090000 0.700000
v -0.090000 -0.090000 0.700000
v 0.000000 0.000000 1.000000
v -0.090000 -0.090000 0.700000
v 0.090000 -0.090000 0.700000
v 0.000000 0.000000 1.000000
v -0.060000 -0.060000 0.060000
v 0.060000 -0.060000 0.060000
v 0.060000 -0.060000 -0.060000
v -0.060000 -0.060000 -0.060000
v 0.060000 -0.060000 0.060000
v -0.060000 -0.060000 0.060000
v -0.060000 0.060000 0.060000
v 0.060000 0.060000 0.060000
v -0.060000 0.060000 -0.060000
v 0.060000 0.060000 -0.060000
v 0.060000 0.060000 0.060000
v -0.060000 0.060000 0.060000
v -0.060000 -0.060000 -0.060000
v 0.060000 -0.060000 -0.060000
v 0.060000 0.060000 -0.060000
v -0.060000 0.060000 -0.060000
v 0.060000 -0.060000 -0.060000
v 0.060000 -0.060000 0.060000
v 0.060000 0.060000 0.060000
v 0.060000 0.060000 -0.060000
v -0.060000 -0.060000 0.060000
v -0.060000 -0.060000 -0.060000
v -0.060000 0.060000 -0.060000
v -0.060000 0.060000 0.060000
vn -0.0000 -1.0000 -0.0000
vn -0.0000 -0.0000 1.0000
vn -0.0000 1.0000 -0.0000
vn -0.0000 -0.0000 -1.0000
vn -1.0000 -0.0000 -0.0000
vn 1.0000 -0.0000 -0.0000
vn 0.2873 -0.0000 -0.9578
vn 0.2873 0.9578 -0.0000
vn 0.2873 -0.0000 0.9578
vn 0.2873 -0.9578 -0.0000
vn -0.0000 0.2873 -0.9578
vn -0.9578 0.2873 -0.0000
vn -0.0000 0.2873 0.9578
vn 0.9578 0.2873 -0.0000
vn 0.9578 -0.0000 0.2873
vn -0.0000 0.9578 0.2873
vn -0.9578 -0.0000 0.2873
vn -0.0000 -0.9578 0.2873
vt 0.653062 0.000414
vt 0.572206 0.808973
vt 0.653061 0.808973
vt 0.572206 0.000414
vt 0.000414 0.808973
vt 0.081270 0.000414
vt 0.000414 0.000414
vt 0.081270 0.808973
vt 0.162955 0.000414
vt 0.082099 0.808973
vt 0.162955 0.808973
vt 0.082099 0.000414
vt 0.244639 0.000414
vt 0.163783 0.808973
vt 0.244639 0.808973
vt 0.163783 0.000414
vt 0.211932 0.672727
vt 0.231250 0.672727
vt 0.231250 0.711364
vt 0.211932 0.711364
vt 0.837046 0.891486
vt 0.917901 0.891486
vt 0.917901 0.972341
vt 0.837046 0.972341
vt 0.080729 0.161458
vt 0.080729 0.338542
vt 0.169271 0.338542
vt 0.169271 0.161458
vt 0.125000 0.037500
vt 0.231250 0.250000
vt 0.125000 0.462500
vt 0.018750 0.250000
vt 0.326324 0.000414
vt 0.245468 0.808973
vt 0.326324 0.808973
vt 0.245468 0.000414
vt 0.327152 0.808973
vt 0.408008 0.000414
vt 0.327152 0.000414
vt 0.408008 0.808973
vt 0.489693 0.000414
vt 0.408837 0.808973
vt 0.489693 0.808973
vt 0.408837 0.000414
vt 0.571377 0.000414
vt 0.490521 0.808973
vt 0.571377 0.808973
vt 0.490521 0.000414
vt 0.461932 0.672727
vt 0.481250 0.672727
vt 0.481250 0.711364
vt 0.461932 0.711364
vt 0.999586 0.809801
vt 0.999586 0.890657
vt 0.918730 0.890657
vt 0.918730 0.809801
vt 0.330729 0.161458
vt 0.330729 0.338542
vt 0.419271 0.338542
vt 0.419271 0.161458
vt 0.375000 0.037500
vt 0.481250 0.250000
vt 0.375000 0.462500
vt 0.268750 0.250000
vt 0.816430 0.000414
vt 0.735574 0.808973
vt 0.816430 0.808973
vt 0.735574 0.000414
vt 0.817259 0.808973
vt 0.898115 0.000414
vt 0.817259 0.000414
vt 0.898115 0.808973
vt 0.979799 0.000414
vt 0.898943 0.808973
vt 0.979799 0.808973
vt 0.898943 0.000414
vt 0.734746 0.000414
vt 0.653890 0.808973
vt 0.734746 0.808973
vt 0.653890 0.000414
vt 0.711932 0.672727
vt 0.731250 0.672727
vt 0.731250 0.711364
vt 0.711932 0.711364
vt 0.837046 0.890657
vt 0.837046 0.809801
vt 0.917901 0.809801
vt 0.917901 0.890657
vt 0.580729 0.161458
vt 0.580729 0.338542
vt 0.669271 0.338542
vt 0.669271 0.161458
vt 0.625000 0.037500
vt 0.731250 0.250000
vt 0.625000 0.462500
vt 0.518750 0.250000
vt 0.000414 0.948411
vt 0.139024 0.809801
vt 0.000414 0.809801
vt 0.139024 0.948411
vt 0.278463 0.809801
vt 0.139853 0.948411
vt 0.278463 0.948411
vt 0.139853 0.809801
vt 0.418730 0.809801
vt 0.557340 0.948411
vt 0.557340 0.809801
vt 0.418730 0.948411
vt 0.279291 0.948411
vt 0.417901 0.809801
vt 0.279291 0.809801
vt 0.417901 0.948411
vt 0.558168 0.948411
vt 0.696779 0.809801
vt 0.558168 0.809801
vt 0.696779 0.948411
vt 0.697607 0.948411
vt 0.836217 0.809801
vt 0.697607 0.809801
vt 0.836217 0.948411
s 1
usemtl gizmo_mat
f 1/1/1 3/2/1 2/3/1
f 1/1/1 4/4/1 3/2/1
f 5/5/2 7/6/2 6/7/2
f 5/5/2 8/8/2 7/6/2
f 9/9/3 11/10/3 10/11/3
f 9/9/3 12/12/3 11/10/3
f 13/13/4 15/14/4 14/15/4
f 13/13/4 16/16/4 15/14/4
f 17/17/5 18/18/5 19/19/5
f 17/17/5 19/19/5 20/20/5
f 21/21/6 22/22/6 23/23/6
f 21/21/6 23/23/6 24/24/6
f 25/25/5 26/26/5 27/27/5
f 25/25/5 27/27/5 28/28/5
f 29/25/7 30/28/7 31/29/7
f 32/28/8 33/27/8 34/30/8
f 35/27/9 36/26/9 37/31/9
f 38/26/10 39/25/10 40/32/10
f 41/33/6 43/34/6 42/35/6
f 41/33/6 44/36/6 43/34/6
f 45/37/2 47/38/2 46/39/2
f 45/37/2 48/40/2 47/38/2
f 49/41/5 51/42/5 50/43/5
f 49/41/5 52/44/5 51/42/5
f 53/45/4 55/46/4 54/47/4
f 53/45/4 56/48/4 55/46/4
f 57/49/1 58/50/1 59/51/1
f 57/49/1 59/51/1 60/52/1
f 61/53/3 62/54/3 63/55/3
f 61/53/3 63/55/3 64/56/3
f 65/57/1 66/58/1 67/59/1
f 65/57/1 67/59/1 68/60/1
f 69/57/11 70/60/11 71/61/11
f 72/60/12 73/59/12 74/62/12
f 75/59/13 76/58/13 77/63/13
f 78/58/14 79/57/14 80/64/14
f 81/65/1 83/66/1 82/67/1
f 81/65/1 84/68/1 83/66/1
f 85/69/5 87/70/5 86/71/5
f 85/69/5 88/72/5 87/70/5
f 89/73/3 91/74/3 90/75/3
f 89/73/3 92/76/3 91/74/3
f 93/77/6 95/78/6 94/79/6
f 93/77/6 96/80/6 95/78/6
f 97/81/4 98/82/4 99/83/4
f 97/81/4 99/83/4 100/84/4
f 101/85/2 102/86/2 103/87/2
f 101/85/2 103/87/2 104/88/2
f 105/89/4 106/90/4 107/91/4
f 105/89/4 107/91/4 108/92/4
f 109/89/15 110/92/15 111/93/15
f 112/92/16 113/91/16 114/94/16
f 115/91/17 116/90/17 117/95/17
f 118/90/18 119/89/18 120/96/18
f 121/97/1 123/98/1 122/99/1
f 121/97/1 124/100/1 123/98/1
f 125/101/2 127/102/2 126/103/2
f 125/101/2 128/104/2 127/102/2
f 129/105/3 131/106/3 130/107/3
f 129/105/3 132/108/3 131/106/3
f 133/109/4 135/110/4 134/111/4
f 133/109/4 136/112/4 135/110/4
f 137/113/6 139/114/6 138/115/6
f 137/113/6 140/116/6 139/114/6
f 141/117/5 143/118/5 142/119/5
f 141/117/5 144/120/5 143/118/5
