# Translation gizmo - real box/pyramid-net UV layout
mtllib gizmo_uvmap.mtl

v 0.000000 -0.035000 0.035000
v 0.700000 -0.035000 0.035000
v 0.700000 -0.035000 -0.035000
v 0.000000 -0.035000 -0.035000
v 0.700000 -0.035000 0.035000
v 0.000000 -0.035000 0.035000
v 0.000000 0.035000 0.035000
v 0.700000 0.035000 0.035000
v 0.000000 0.035000 -0.035000
v 0.700000 0.035000 -0.035000
v 0.700000 0.035000 0.035000
v 0.000000 0.035000 0.035000
v 0.000000 -0.035000 -0.035000
v 0.700000 -0.035000 -0.035000
v 0.700000 0.035000 -0.035000
v 0.000000 0.035000 -0.035000
v 0.700000 -0.035000 -0.035000
v 0.700000 -0.035000 0.035000
v 0.700000 0.035000 0.035000
v 0.700000 0.035000 -0.035000
v 0.000000 -0.035000 0.035000
v 0.000000 -0.035000 -0.035000
v 0.000000 0.035000 -0.035000
v 0.000000 0.035000 0.035000
v 0.700000 -0.090000 -0.090000
v 0.700000 -0.090000 0.090000
v 0.700000 0.090000 0.090000
v 0.700000 0.090000 -0.090000
v 0.700000 -0.090000 -0.090000
v 0.700000 0.090000 -0.090000
v 1.000000 0.000000 0.000000
v 0.700000 0.090000 -0.090000
v 0.700000 0.090000 0.090000
v 1.000000 0.000000 0.000000
v 0.700000 0.090000 0.090000
v 0.700000 -0.090000 0.090000
v 1.000000 0.000000 0.000000
v 0.700000 -0.090000 0.090000
v 0.700000 -0.090000 -0.090000
v 1.000000 0.000000 0.000000
v 0.035000 0.000000 0.035000
v 0.035000 0.700000 0.035000
v 0.035000 0.700000 -0.035000
v 0.035000 0.000000 -0.035000
v 0.035000 0.700000 0.035000
v 0.035000 0.000000 0.035000
v -0.035000 0.000000 0.035000
v -0.035000 0.700000 0.035000
v -0.035000 0.000000 -0.035000
v -0.035000 0.700000 -0.035000
v -0.035000 0.700000 0.035000
v -0.035000 0.000000 0.035000
v 0.035000 0.000000 -0.035000
v 0.035000 0.700000 -0.035000
v -0.035000 0.700000 -0.035000
v -0.035000 0.000000 -0.035000
v 0.035000 0.700000 -0.035000
v 0.035000 0.700000 0.035000
v -0.035000 0.700000 0.035000
v -0.035000 0.700000 -0.035000
v 0.035000 0.000000 0.035000
v 0.035000 0.000000 -0.035000
v -0.035000 0.000000 -0.035000
v -0.035000 0.000000 0.035000
v 0.090000 0.700000 -0.090000
v 0.090000 0.700000 0.090000
v -0.090000 0.700000 0.090000
v -0.090000 0.700000 -0.090000
v 0.090000 0.700000 -0.090000
v -0.090000 0.700000 -0.090000
v 0.000000 1.000000 0.000000
v -0.090000 0.700000 -0.090000
v -0.090000 0.700000 0.090000
v 0.000000 1.000000 0.000000
v -0.090000 0.700000 0.090000
v 0.090000 0.700000 0.090000
v 0.000000 1.000000 0.000000
v 0.090000 0.700000 0.090000
v 0.090000 0.700000 -0.090000
v 0.000000 1.000000 0.000000
v -0.035000 -0.035000 0.000000
v -0.035000 -0.035000 0.700000
v 0.035000 -0.035000 0.700000
v 0.035000 -0.035000 0.000000
v -0.035000 -0.035000 0.700000
v -0.035000 -0.035000 0.000000
v -0.035000 0.035000 0.000000
v -0.035000 0.035000 0.700000
v 0.035000 0.035000 0.000000
v 0.035000 0.035000 0.700000
v -0.035000 0.035000 0.700000
v -0.035000 0.035000 0.000000
v 0.035000 -0.035000 0.000000
v 0.035000 -0.035000 0.700000
v 0.035000 0.035000 0.700000
v 0.035000 0.035000 0.000000
v 0.035000 -0.035000 0.700000
v -0.035000 -0.035000 0.700000
v -0.035000 0.035000 0.700000
v 0.035000 0.035000 0.700000
v -0.035000 -0.035000 0.000000
v 0.035000 -0.035000 0.000000
v 0.035000 0.035000 0.000000
v -0.035000 0.035000 0.000000
v 0.090000 -0.090000 0.700000
v -0.090000 -0.090000 0.700000
v -0.090000 0.090000 0.700000
v 0.090000 0.090000 0.700000
v 0.090000 -0.090000 0.700000
v 0.090000 0.090000 0.700000
v 0.000000 0.000000 1.000000
v 0.090000 0.090000 0.700000
v -0.090000 0.090000 0.700000
v 0.000000 0.000000 1.000000
v -0.090000 0.090000 0.700000
v -0.090000 -0.090000 0.700000
v 0.000000 0.000000 1.000000
v -0.090000 -0.090000 0.700000
v 0.090000 -0.090000 0.700000
v 0.000000 0.000000 1.000000
v -0.060000 -0.060000 0.060000
v 0.060000 -0.060000 0.060000
v 0.060000 -0.060000 -0.060000
v -0.060000 -0.060000 -0.060000
v 0.060000 -0.060000 0.060000
v -0.060000 -0.060000 0.060000
v -0.060000 0.060000 0.060000
v 0.060000 0.060000 0.060000
v -0.060000 0.060000 -0.060000
v 0.060000 0.060000 -0.060000
v 0.060000 0.060000 0.060000
v -0.060000 0.060000 0.060000
v -0.060000 -0.060000 -0.060000
v 0.060000 -0.060000 -0.060000
v 0.060000 0.060000 -0.060000
v -0.060000 0.060000 -0.060000
v 0.060000 -0.060000 -0.060000
v 0.060000 -0.060000 0.060000
v 0.060000 0.060000 0.060000
v 0.060000 0.060000 -0.060000
v -0.060000 -0.060000 0.060000
v -0.060000 -0.060000 -0.060000
v -0.060000 0.060000 -0.060000
v -0.060000 0.060000 0.060000

vt 0.018750 0.711364
vt 0.211932 0.711364
vt 0.211932 0.672727
vt 0.018750 0.672727
vt 0.211932 0.711364
vt 0.018750 0.711364
vt 0.018750 0.750000
vt 0.211932 0.750000
vt 0.018750 0.750000
vt 0.211932 0.750000
vt 0.211932 0.788636
vt 0.018750 0.788636
vt 0.018750 0.788636
vt 0.211932 0.788636
vt 0.211932 0.827273
vt 0.018750 0.827273
vt 0.211932 0.672727
vt 0.231250 0.672727
vt 0.231250 0.711364
vt 0.211932 0.711364
vt 0.231250 0.711364
vt 0.211932 0.711364
vt 0.211932 0.750000
vt 0.231250 0.750000
vt 0.080729 0.161458
vt 0.080729 0.338542
vt 0.169271 0.338542
vt 0.169271 0.161458
vt 0.080729 0.161458
vt 0.169271 0.161458
vt 0.125000 0.037500
vt 0.169271 0.161458
vt 0.169271 0.338542
vt 0.231250 0.250000
vt 0.169271 0.338542
vt 0.080729 0.338542
vt 0.125000 0.462500
vt 0.080729 0.338542
vt 0.080729 0.161458
vt 0.018750 0.250000
vt 0.268750 0.711364
vt 0.461932 0.711364
vt 0.461932 0.672727
vt 0.268750 0.672727
vt 0.461932 0.711364
vt 0.268750 0.711364
vt 0.268750 0.750000
vt 0.461932 0.750000
vt 0.268750 0.750000
vt 0.461932 0.750000
vt 0.461932 0.788636
vt 0.268750 0.788636
vt 0.268750 0.788636
vt 0.461932 0.788636
vt 0.461932 0.827273
vt 0.268750 0.827273
vt 0.461932 0.672727
vt 0.481250 0.672727
vt 0.481250 0.711364
vt 0.461932 0.711364
vt 0.481250 0.711364
vt 0.461932 0.711364
vt 0.461932 0.750000
vt 0.481250 0.750000
vt 0.330729 0.161458
vt 0.330729 0.338542
vt 0.419271 0.338542
vt 0.419271 0.161458
vt 0.330729 0.161458
vt 0.419271 0.161458
vt 0.375000 0.037500
vt 0.419271 0.161458
vt 0.419271 0.338542
vt 0.481250 0.250000
vt 0.419271 0.338542
vt 0.330729 0.338542
vt 0.375000 0.462500
vt 0.330729 0.338542
vt 0.330729 0.161458
vt 0.268750 0.250000
vt 0.518750 0.711364
vt 0.711932 0.711364
vt 0.711932 0.672727
vt 0.518750 0.672727
vt 0.711932 0.711364
vt 0.518750 0.711364
vt 0.518750 0.750000
vt 0.711932 0.750000
vt 0.518750 0.750000
vt 0.711932 0.750000
vt 0.711932 0.788636
vt 0.518750 0.788636
vt 0.518750 0.788636
vt 0.711932 0.788636
vt 0.711932 0.827273
vt 0.518750 0.827273
vt 0.711932 0.672727
vt 0.731250 0.672727
vt 0.731250 0.711364
vt 0.711932 0.711364
vt 0.731250 0.711364
vt 0.711932 0.711364
vt 0.711932 0.750000
vt 0.731250 0.750000
vt 0.580729 0.161458
vt 0.580729 0.338542
vt 0.669271 0.338542
vt 0.669271 0.161458
vt 0.580729 0.161458
vt 0.669271 0.161458
vt 0.625000 0.037500
vt 0.669271 0.161458
vt 0.669271 0.338542
vt 0.731250 0.250000
vt 0.669271 0.338542
vt 0.580729 0.338542
vt 0.625000 0.462500
vt 0.580729 0.338542
vt 0.580729 0.161458
vt 0.518750 0.250000
vt 0.821875 0.643750
vt 0.875000 0.643750
vt 0.875000 0.537500
vt 0.821875 0.537500
vt 0.875000 0.643750
vt 0.821875 0.643750
vt 0.821875 0.750000
vt 0.875000 0.750000
vt 0.821875 0.750000
vt 0.875000 0.750000
vt 0.875000 0.856250
vt 0.821875 0.856250
vt 0.821875 0.856250
vt 0.875000 0.856250
vt 0.875000 0.962500
vt 0.821875 0.962500
vt 0.875000 0.537500
vt 0.928125 0.537500
vt 0.928125 0.643750
vt 0.875000 0.643750
vt 0.928125 0.643750
vt 0.875000 0.643750
vt 0.875000 0.750000
vt 0.928125 0.750000

o Gizmo
usemtl gizmo_mat
f 1/1 2/2 3/3
f 1/1 3/3 4/4
f 5/5 6/6 7/7
f 5/5 7/7 8/8
f 9/9 10/10 11/11
f 9/9 11/11 12/12
f 13/13 14/14 15/15
f 13/13 15/15 16/16
f 17/17 18/18 19/19
f 17/17 19/19 20/20
f 21/21 22/22 23/23
f 21/21 23/23 24/24
f 25/25 26/26 27/27
f 25/25 27/27 28/28
f 29/29 30/30 31/31
f 32/32 33/33 34/34
f 35/35 36/36 37/37
f 38/38 39/39 40/40
f 41/41 42/42 43/43
f 41/41 43/43 44/44
f 45/45 46/46 47/47
f 45/45 47/47 48/48
f 49/49 50/50 51/51
f 49/49 51/51 52/52
f 53/53 54/54 55/55
f 53/53 55/55 56/56
f 57/57 58/58 59/59
f 57/57 59/59 60/60
f 61/61 62/62 63/63
f 61/61 63/63 64/64
f 65/65 66/66 67/67
f 65/65 67/67 68/68
f 69/69 70/70 71/71
f 72/72 73/73 74/74
f 75/75 76/76 77/77
f 78/78 79/79 80/80
f 81/81 82/82 83/83
f 81/81 83/83 84/84
f 85/85 86/86 87/87
f 85/85 87/87 88/88
f 89/89 90/90 91/91
f 89/89 91/91 92/92
f 93/93 94/94 95/95
f 93/93 95/95 96/96
f 97/97 98/98 99/99
f 97/97 99/99 100/100
f 101/101 102/102 103/103
f 101/101 103/103 104/104
f 105/105 106/106 107/107
f 105/105 107/107 108/108
f 109/109 110/110 111/111
f 112/112 113/113 114/114
f 115/115 116/116 117/117
f 118/118 119/119 120/120
f 121/121 122/122 123/123
f 121/121 123/123 124/124
f 125/125 126/126 127/127
f 125/125 127/127 128/128
f 129/129 130/130 131/131
f 129/129 131/131 132/132
f 133/133 134/134 135/135
f 133/133 135/135 136/136
f 137/137 138/138 139/139
f 137/137 139/139 140/140
f 141/141 142/142 143/143
f 141/141 143/143 144/144
